<!--
version: "2.37"
unicode: "fcc5"
-->
<svg
  xmlns="http://www.w3.org/2000/svg"
  width="28"
  height="28"
  viewBox="0 0 24 24"
  fill="none"
  stroke="#007aff"
  stroke-width="3"
  stroke-linecap="round"
  stroke-linejoin="round"
>
  <path d="M3 12c.576 -.643 1.512 -1.017 2.5 -1c.988 -.017 1.924 .357 2.5 1c.576 .643 1.512 1.017 2.5 1c.988 .017 1.924 -.357 2.5 -1" />
  <path d="M3 16c.576 -.643 1.512 -1.017 2.5 -1c.988 -.017 1.924 .357 2.5 1c.576 .643 1.512 1.017 2.5 1c.988 .017 1.924 -.357 2.5 -1" />
  <path d="M3 8c.576 -.643 1.512 -1.017 2.5 -1c.988 -.017 1.924 .357 2.5 1c.576 .643 1.512 1.017 2.5 1c.988 .017 1.924 -.357 2.5 -1" />
  <path d="M20 7l-3 5h4l-3 5" />
</svg>
